Genre:Drama | Thriller
Language:English
IMDb:  http://www.imdb.com/title/tt1675192/
Source:1080p BluRay X264-AMIABLE Thanks!
Encoder:Tony

Format : AVI
Format/Info : Audio Video Interleave
File size : 1.26 GiB
Duration : 2h 1mn
Overall bit rate : 1 486 Kbps

Video
ID : 0
Format : MPEG-4 Visual
Format profile : Advanced Simple@L5
Format settings, BVOP : 1
Format settings, QPel : No
Format settings, GMC : No warppoints
Format settings, Matrix : Default (H.263)
Codec ID : XVID
Codec ID/Hint : XviD
Duration : 2h 1mn
Bit rate : 1 028 Kbps
Width : 640 pixels
Height : 272 pixels
Display aspect ratio : 2.35:1
Frame rate : 23.976 fps
Color space : YUV
Chroma subsampling : 4:2:0
Bit depth : 8 bits
Scan type : Progressive
Compression mode : Lossy
Bits/(Pixel*Frame) : 0.246
Stream size : 891 MiB (69%)
Writing library : XviD 1.2.1 (UTC 2008-12-04)

Audio
ID : 1
Format : AC-3
Format/Info : Audio Coding 3
Mode extension : CM (complete main)
Codec ID : 2000
Duration : 2h 1mn
Bit rate mode : Constant
Bit rate : 448 Kbps
Channel(s) : 6 channels
Channel positions : Front: L C R, Side: L R, LFE
Sampling rate : 48.0 KHz
Bit depth : 16 bits
Compression mode : Lossy
Stream size : 388 MiB (30%)
Alignment : Aligned on interleaves
Interleave, duration : 42 ms (1.00 video frame)
Interleave, preload duration : 512 ms 
http://img823.imageshack.us/img823/8763/vlcsnap2012020215h27m36.png 
http://img51.imageshack.us/img51/7233/vlcsnap2012020215h27m54.png

Plot:
Plagued by a series of apocalyptic visions, a young husband and father questions whether to shelter his family from a coming storm, or from himself.
